<mxfile host="app.diagrams.net" modified="2023-07-19T13:31:04.360Z" agent="Mozilla/5.0 (Macintosh; Intel Mac OS X 10_15_7) AppleWebKit/537.36 (KHTML, like Gecko) Chrome/114.0.0.0 Safari/537.36" etag="gIQS3AKoPd-GRsTKYO6u" version="21.5.0" type="github">
  <diagram name="페이지-1" id="LsEsqIbfqtfTpdgCS7v2">
    <mxGraphModel dx="1129" dy="724" grid="1" gridSize="10" guides="1" tooltips="1" connect="1" arrows="1" fold="1" page="1" pageScale="1" pageWidth="827" pageHeight="1169" math="0" shadow="0">
      <root>
        <mxCell id="0" />
        <mxCell id="1" parent="0" />
        <mxCell id="EK99WSGfgSY-ukp49R20-1" value="이용자" style="shape=umlActor;verticalLabelPosition=bottom;verticalAlign=top;html=1;" vertex="1" parent="1">
          <mxGeometry x="80" y="160" width="30" height="60" as="geometry" />
        </mxCell>
        <mxCell id="EK99WSGfgSY-ukp49R20-4" value="게시판 서비스" style="shape=umlFrame;whiteSpace=wrap;html=1;pointerEvents=0;width=130;height=20;" vertex="1" parent="1">
          <mxGeometry x="170" y="20" width="540" height="590" as="geometry" />
        </mxCell>
        <mxCell id="EK99WSGfgSY-ukp49R20-18" style="rounded=0;orthogonalLoop=1;jettySize=auto;html=1;entryX=1;entryY=0.3333333333333333;entryDx=0;entryDy=0;entryPerimeter=0;endArrow=none;endFill=0;" edge="1" parent="1" source="EK99WSGfgSY-ukp49R20-6" target="EK99WSGfgSY-ukp49R20-1">
          <mxGeometry relative="1" as="geometry" />
        </mxCell>
        <mxCell id="EK99WSGfgSY-ukp49R20-6" value="회원 가입" style="rounded=1;whiteSpace=wrap;html=1;arcSize=40;fontColor=#000000;fillColor=#ffffc0;strokeColor=#ff0000;" vertex="1" parent="1">
          <mxGeometry x="210" y="160" width="120" height="40" as="geometry" />
        </mxCell>
        <mxCell id="EK99WSGfgSY-ukp49R20-20" style="rounded=0;orthogonalLoop=1;jettySize=auto;html=1;entryX=1;entryY=0.3333333333333333;entryDx=0;entryDy=0;entryPerimeter=0;endArrow=none;endFill=0;exitX=0;exitY=0.5;exitDx=0;exitDy=0;" edge="1" parent="1" source="EK99WSGfgSY-ukp49R20-9" target="EK99WSGfgSY-ukp49R20-1">
          <mxGeometry relative="1" as="geometry" />
        </mxCell>
        <mxCell id="EK99WSGfgSY-ukp49R20-25" style="rounded=0;orthogonalLoop=1;jettySize=auto;html=1;exitX=1;exitY=0.25;exitDx=0;exitDy=0;dashed=1;" edge="1" parent="1" source="EK99WSGfgSY-ukp49R20-9" target="EK99WSGfgSY-ukp49R20-11">
          <mxGeometry relative="1" as="geometry" />
        </mxCell>
        <mxCell id="EK99WSGfgSY-ukp49R20-9" value="게시판 보기" style="rounded=1;whiteSpace=wrap;html=1;arcSize=40;fontColor=#000000;fillColor=#ffffc0;strokeColor=#ff0000;" vertex="1" parent="1">
          <mxGeometry x="210" y="250" width="120" height="40" as="geometry" />
        </mxCell>
        <mxCell id="EK99WSGfgSY-ukp49R20-21" style="rounded=0;orthogonalLoop=1;jettySize=auto;html=1;entryX=1;entryY=0.3333333333333333;entryDx=0;entryDy=0;entryPerimeter=0;endArrow=none;endFill=0;exitX=0;exitY=0.5;exitDx=0;exitDy=0;" edge="1" parent="1" source="EK99WSGfgSY-ukp49R20-10" target="EK99WSGfgSY-ukp49R20-1">
          <mxGeometry relative="1" as="geometry" />
        </mxCell>
        <mxCell id="EK99WSGfgSY-ukp49R20-26" style="rounded=0;orthogonalLoop=1;jettySize=auto;html=1;entryX=0.421;entryY=1.014;entryDx=0;entryDy=0;entryPerimeter=0;dashed=1;exitX=1;exitY=0.5;exitDx=0;exitDy=0;" edge="1" parent="1" source="EK99WSGfgSY-ukp49R20-10" target="EK99WSGfgSY-ukp49R20-11">
          <mxGeometry relative="1" as="geometry" />
        </mxCell>
        <mxCell id="EK99WSGfgSY-ukp49R20-10" value="게시글 보기" style="rounded=1;whiteSpace=wrap;html=1;arcSize=40;fontColor=#000000;fillColor=#ffffc0;strokeColor=#ff0000;" vertex="1" parent="1">
          <mxGeometry x="200" y="400" width="120" height="40" as="geometry" />
        </mxCell>
        <mxCell id="EK99WSGfgSY-ukp49R20-19" style="rounded=0;orthogonalLoop=1;jettySize=auto;html=1;endArrow=none;endFill=0;exitX=0;exitY=0.5;exitDx=0;exitDy=0;entryX=1;entryY=0.3333333333333333;entryDx=0;entryDy=0;entryPerimeter=0;" edge="1" parent="1" source="EK99WSGfgSY-ukp49R20-11" target="EK99WSGfgSY-ukp49R20-1">
          <mxGeometry relative="1" as="geometry">
            <mxPoint x="110" y="180" as="targetPoint" />
          </mxGeometry>
        </mxCell>
        <mxCell id="EK99WSGfgSY-ukp49R20-22" value="&amp;lt;&amp;lt;include&amp;gt;&amp;gt;" style="rounded=0;orthogonalLoop=1;jettySize=auto;html=1;endArrow=classic;endFill=1;dashed=1;" edge="1" parent="1" source="EK99WSGfgSY-ukp49R20-11" target="EK99WSGfgSY-ukp49R20-12">
          <mxGeometry relative="1" as="geometry" />
        </mxCell>
        <mxCell id="EK99WSGfgSY-ukp49R20-23" value="&amp;lt;&amp;lt;extend&amp;gt;&amp;gt;" style="rounded=0;orthogonalLoop=1;jettySize=auto;html=1;endArrow=none;endFill=0;entryX=0;entryY=0.5;entryDx=0;entryDy=0;exitX=1;exitY=0.5;exitDx=0;exitDy=0;dashed=1;startArrow=classic;startFill=1;" edge="1" parent="1" source="EK99WSGfgSY-ukp49R20-11" target="EK99WSGfgSY-ukp49R20-13">
          <mxGeometry relative="1" as="geometry" />
        </mxCell>
        <mxCell id="EK99WSGfgSY-ukp49R20-11" value="회원 로그인" style="rounded=1;whiteSpace=wrap;html=1;arcSize=40;fontColor=#000000;fillColor=#ffffc0;strokeColor=#ff0000;" vertex="1" parent="1">
          <mxGeometry x="350" y="40" width="120" height="40" as="geometry" />
        </mxCell>
        <mxCell id="EK99WSGfgSY-ukp49R20-12" value="인증" style="rounded=1;whiteSpace=wrap;html=1;arcSize=40;fontColor=#000000;fillColor=#ffffc0;strokeColor=#ff0000;" vertex="1" parent="1">
          <mxGeometry x="573" y="40" width="120" height="40" as="geometry" />
        </mxCell>
        <mxCell id="EK99WSGfgSY-ukp49R20-13" value="로그인 실패" style="rounded=1;whiteSpace=wrap;html=1;arcSize=40;fontColor=#000000;fillColor=#ffffc0;strokeColor=#ff0000;" vertex="1" parent="1">
          <mxGeometry x="573" y="110" width="120" height="40" as="geometry" />
        </mxCell>
        <mxCell id="EK99WSGfgSY-ukp49R20-27" style="rounded=0;orthogonalLoop=1;jettySize=auto;html=1;entryX=1;entryY=0.25;entryDx=0;entryDy=0;strokeColor=default;dashed=1;exitX=0;exitY=0.5;exitDx=0;exitDy=0;" edge="1" parent="1" source="EK99WSGfgSY-ukp49R20-14" target="EK99WSGfgSY-ukp49R20-9">
          <mxGeometry relative="1" as="geometry" />
        </mxCell>
        <mxCell id="EK99WSGfgSY-ukp49R20-14" value="게시판 정렬" style="rounded=1;whiteSpace=wrap;html=1;arcSize=40;fontColor=#000000;fillColor=#ffffc0;strokeColor=#ff0000;" vertex="1" parent="1">
          <mxGeometry x="410" y="200" width="120" height="40" as="geometry" />
        </mxCell>
        <mxCell id="EK99WSGfgSY-ukp49R20-28" style="rounded=0;orthogonalLoop=1;jettySize=auto;html=1;entryX=1;entryY=0.5;entryDx=0;entryDy=0;dashed=1;exitX=0;exitY=0.5;exitDx=0;exitDy=0;" edge="1" parent="1" source="EK99WSGfgSY-ukp49R20-15" target="EK99WSGfgSY-ukp49R20-9">
          <mxGeometry relative="1" as="geometry" />
        </mxCell>
        <mxCell id="EK99WSGfgSY-ukp49R20-15" value="게시판 검색" style="rounded=1;whiteSpace=wrap;html=1;arcSize=40;fontColor=#000000;fillColor=#ffffc0;strokeColor=#ff0000;" vertex="1" parent="1">
          <mxGeometry x="410" y="270" width="120" height="40" as="geometry" />
        </mxCell>
        <mxCell id="EK99WSGfgSY-ukp49R20-29" style="rounded=0;orthogonalLoop=1;jettySize=auto;html=1;entryX=1;entryY=0.5;entryDx=0;entryDy=0;dashed=1;exitX=0;exitY=0.5;exitDx=0;exitDy=0;" edge="1" parent="1" source="EK99WSGfgSY-ukp49R20-16" target="EK99WSGfgSY-ukp49R20-10">
          <mxGeometry relative="1" as="geometry" />
        </mxCell>
        <mxCell id="EK99WSGfgSY-ukp49R20-16" value="게시글 쓰기,수정,삭제" style="rounded=1;whiteSpace=wrap;html=1;arcSize=40;fontColor=#000000;fillColor=#ffffc0;strokeColor=#ff0000;" vertex="1" parent="1">
          <mxGeometry x="410" y="340" width="120" height="40" as="geometry" />
        </mxCell>
        <mxCell id="EK99WSGfgSY-ukp49R20-30" style="rounded=0;orthogonalLoop=1;jettySize=auto;html=1;entryX=1;entryY=0.5;entryDx=0;entryDy=0;dashed=1;exitX=0;exitY=0.5;exitDx=0;exitDy=0;" edge="1" parent="1" source="EK99WSGfgSY-ukp49R20-17" target="EK99WSGfgSY-ukp49R20-10">
          <mxGeometry relative="1" as="geometry" />
        </mxCell>
        <mxCell id="EK99WSGfgSY-ukp49R20-17" value="댓글 보기,쓰기&lt;br&gt;,수정,삭제" style="rounded=1;whiteSpace=wrap;html=1;arcSize=40;fontColor=#000000;fillColor=#ffffc0;strokeColor=#ff0000;" vertex="1" parent="1">
          <mxGeometry x="410" y="410" width="120" height="40" as="geometry" />
        </mxCell>
      </root>
    </mxGraphModel>
  </diagram>
</mxfile>
